<svg width="40" height="40" viewBox="0 0 40 40" fill="none" xmlns="http://www.w3.org/2000/svg">
<g clip-path="url(#clip0_58_390)">
<path d="M40 20C40 8.9544 31.0456 0 20 0C8.9544 0 0 8.9544 0 20C0 29.3792 6.4576 37.2496 15.1688 39.4112V26.112H11.0448V20H15.1688V17.3664C15.1688 10.5592 18.2496 7.404 24.9328 7.404C26.2 7.404 28.3864 7.6528 29.2808 7.9008V13.4408C28.8088 13.3912 27.9888 13.3664 26.9704 13.3664C23.6912 13.3664 22.424 14.6088 22.424 17.8384V20H28.9568L27.8344 26.112H22.424V39.8536C32.3272 38.6576 40.0008 30.2256 40.0008 20H40Z" fill="#0866FF"/>
<path d="M27.8336 26.112L28.956 20H22.4232V17.8384C22.4232 14.6088 23.6904 13.3664 26.9696 13.3664C27.988 13.3664 28.808 13.3912 29.28 13.4408V7.90081C28.3856 7.65201 26.1992 7.40401 24.932 7.40401C18.2488 7.40401 15.168 10.5592 15.168 17.3664V20H11.044V26.112H15.168V39.4112C16.7152 39.7952 18.3336 40 19.9992 40C20.8192 40 21.628 39.9496 22.4224 39.8536V26.112H27.8328H27.8336Z" fill="white"/>
</g>
<defs>
<clipPath id="clip0_58_390">
<rect width="40" height="40" fill="white"/>
</clipPath>
</defs>
</svg>
