<svg width="534" height="814" viewBox="0 0 534 814" fill="none" xmlns="http://www.w3.org/2000/svg">
<path d="M150.316 95.9796L155.117 92.3174L155.194 92.3895C178.245 113.82 194.646 125.463 210.506 136.722C225.247 147.186 239.168 157.068 257.458 174.004C265.791 181.722 278.033 194.317 288.859 205.524C300.433 207.553 312.046 210.192 323.374 213.366C329.293 209.238 335.91 205.865 343.61 203.055L343.757 203.001L343.771 203.137C343.85 203.925 343.916 204.713 343.968 205.476L343.97 205.52L343.934 205.552C338.506 210.118 333.827 215.115 330.023 220.405C323.756 229.119 302.695 261.612 297.769 270.772C296.888 272.412 295.963 274.149 294.947 276.084V276.085L294.734 276.005C296.021 273.512 296.926 271.84 297.326 271.109C295.194 272.702 284.951 280.607 270.787 295.688C256.123 311.3 234.141 338.011 212.691 376.613L212.476 376.54C224.143 345.954 240.164 315.382 260.095 285.676C255.52 281.713 251.173 277.629 247.177 273.538L95.8267 137.679L95.7453 137.606L150.316 95.9796Z" fill="#A75B3F"/>
<path d="M187.092 527.741C204.169 516.296 221.741 504.958 239.322 494.044C240.507 493.309 241.694 492.574 242.877 491.843C242.522 487.044 242.296 482.08 242.21 477.063C242.814 474.75 243.488 471.935 244.266 468.674C247.1 456.82 251.381 438.904 258.613 419.343C267.241 396.007 278.083 375.84 290.838 359.403C326.17 313.875 371.366 280.787 419.218 245.756C422.947 243.026 426.694 240.282 430.46 237.518C438.011 231.972 454.83 210.701 457.476 200.317C457.376 199.895 457.261 199.462 457.13 199.03L457.044 198.742L457.315 198.93C465.075 204.304 471.534 210.644 475.998 217.268C480.808 224.408 482.956 231.478 482.215 237.721C491.032 242.835 496.944 250.791 501.566 257.902C519.014 284.756 528.435 315.171 528.809 345.86C529.277 384.467 515.511 422.274 502.2 458.837C489.415 493.952 476.197 530.261 475.554 567.293C475.195 588.053 478.458 610.304 481.613 631.822C486.557 665.518 491.668 700.359 483.556 731.852L483.544 731.894L483.504 731.915C479.379 734.054 473.969 736.104 467.427 738.008C443.681 744.917 406.375 749.524 367.632 750.328C363.489 750.415 359.387 750.457 355.318 750.457C317.232 750.457 282.726 746.71 257.136 739.727L257.075 739.711L257.06 739.657C254.434 730.538 252.914 721.186 251.442 712.144C249.637 701.053 247.772 689.585 243.857 678.692C238.018 662.447 231.733 646.013 225.656 630.12C223.091 623.412 220.438 616.477 217.856 609.649L152.353 651.652L152.258 651.713L103.846 593.751L100.524 589.775L100.465 589.704L100.542 589.645C128.512 568.316 157.632 547.487 187.092 527.741ZM375.032 750.029C387.938 749.608 400.595 748.765 412.578 747.545C400.64 748.751 387.978 749.598 375.032 750.029Z" fill="#A75B3F"/>
<path d="M206.495 387.887C208.517 384.009 210.55 380.238 212.587 376.571C254.123 301.822 297.663 270.731 297.663 270.731C297.663 270.731 296.628 272.585 294.841 276.045C248.654 364.093 240.037 435.656 242.324 477.085L242.325 477.085C242.412 482.02 242.632 486.96 242.998 491.891C241.796 492.633 240.594 493.377 239.391 494.124C221.372 505.309 203.969 516.556 187.165 527.818C187.376 503.442 189.372 420.72 206.495 387.887Z" fill="#85392E"/>
<path d="M103.891 593.605L103.979 593.57L148.438 646.8L148.506 646.881L132.524 656.424L132.422 656.485L91.9095 598.458L91.8436 598.365L103.891 593.605Z" fill="#E4F4FE"/>
<path d="M104.323 131.327L93.6392 122.726L93.5537 122.659L128.919 91.1452L138.474 82.6296L150.485 95.9931L150.548 96.0651L104.402 131.267L104.323 131.327Z" fill="#E4F4FE"/>
<path d="M297.663 270.731C302.59 261.569 323.743 228.95 329.924 220.355C333.834 214.917 338.542 209.95 343.853 205.482C345.347 226.774 337.732 237.213 337.732 237.213L329.648 261.019C329.648 261.019 393.181 259.485 433.43 204.787V180.224L434.707 180.115C443.017 182.471 454.08 188.563 457.242 199.007C457.372 199.437 457.49 199.873 457.593 200.318C454.998 210.561 438.275 231.908 430.535 237.593C378.248 275.998 328.996 310.41 290.934 359.457C257.373 402.704 247.376 457.738 242.325 477.084L242.324 477.085C240.037 435.655 248.654 364.093 294.841 276.045C295.767 274.28 296.706 272.51 297.663 270.731Z" fill="#E4F4FE"/>
<path d="M2.08047 701.027C8.57047 689.183 18.5376 679.713 28.0064 669.584C33.1027 664.133 38.1549 658.652 43.1648 653.143C45.6692 650.389 48.1631 647.627 50.6459 644.859C51.6265 643.766 56.203 637.14 57.5701 637.087C53.484 637.244 49.397 637.401 45.3096 637.558C40.6485 637.737 35.8972 637.908 31.3934 636.867C26.89 635.825 22.5922 633.354 20.8879 629.657C20.0309 627.8 20.0671 625.347 21.969 624.18C22.6079 623.788 23.3818 623.591 24.1519 623.459C27.7415 622.844 31.4416 623.5 35.1005 623.597C52.0276 624.048 66.0044 612.867 82.0368 608.223C86.8673 606.824 91.8664 606.029 96.9265 605.453L121.299 640.362C113.822 646.223 104.429 650.719 96.3503 656.051C79.0176 667.491 62.8366 680.641 51.5265 696.782C49.517 699.648 47.4104 702.799 43.7893 704.079C42.5977 704.501 41.1641 704.669 40.0643 704.096C39.7023 703.908 39.4204 703.668 39.2041 703.393C38.4796 704.027 37.746 704.651 36.9966 705.263C35.7822 706.255 34.4474 707.258 32.7959 707.538C31.2556 707.799 29.4047 707.162 28.9244 705.931C26.599 708.094 24.0963 710.12 21.4326 711.979C19.3339 713.445 16.4185 714.862 14.0782 713.692C12.591 712.948 12.0143 711.438 11.9728 709.925C11.551 710.243 11.1209 710.551 10.6792 710.849C8.98235 711.995 6.92847 713.036 4.78244 712.78C3.33307 712.607 2.12865 711.845 1.29249 710.818C0.56012 709.92 0.109238 708.818 0.021225 707.731C-0.166435 705.401 0.920891 703.144 2.08047 701.027Z" fill="#F7B7A1"/>
<path d="M104.498 113.049C98.2538 106.817 91.5845 100.849 85.1065 94.7968C75.7759 86.0787 65.5568 76.0103 61.7862 64.4454C61.2349 62.7546 60.808 60.9592 61.3145 59.2585C61.6932 57.9877 62.7336 56.7961 64.0954 56.2626C62.8565 54.0291 61.9805 51.6493 61.5105 49.2117C61.3735 48.5026 61.2747 47.7706 61.2701 47.046C61.2618 45.9374 61.4719 44.8475 62.0996 43.8858C62.7448 42.8956 63.9704 42.1363 65.2467 41.9283C64.0925 39.0253 63.446 35.9764 63.3559 32.913C63.2908 30.7393 63.7865 28.1694 66.0716 27.1951C66.8177 26.8764 67.6427 26.7997 68.4572 26.9026C67.9902 25.2248 67.6613 23.5195 67.4799 21.8025C67.1972 19.109 67.3545 16.1686 69.3204 14.0439C69.7575 13.5723 70.2956 13.1427 70.9628 12.9473C73.1458 12.3079 75.0414 14.3184 76.1716 16.0312C80.4765 22.5589 84.8964 29.7105 90.4888 35.5164C93.7168 38.8677 97.7963 41.9078 101.535 44.8348C105.931 48.2761 110.01 52.0104 113.722 55.9934L113.761 56.0361C112.207 48.9725 112.655 41.587 115.122 34.7116C115.481 33.7115 115.949 32.6456 116.985 32.0821C118.531 31.2409 120.707 31.9542 121.818 33.1974C122.929 34.4407 123.257 36.0488 123.598 37.5832C124.08 39.7555 124.651 41.9138 125.311 44.0522C126.521 47.9776 128.032 51.8532 128.695 55.8718C129.417 60.2523 128.514 64.378 127.217 68.5747C125.944 72.6923 122.407 76.1103 122.058 80.4791C121.9 82.4713 125.346 87.1425 129.002 91.213L104.498 113.049Z" fill="#F7B7A1"/>
<path d="M305.379 106.694C305.575 107.713 305.786 108.739 306.015 109.77C306.015 109.77 307.173 94.6923 312.483 80.9748C316.692 80.0859 320.813 78.9232 324.785 77.5532C328.225 76.3665 331.568 75.0297 334.835 73.5815C328.501 79.5662 321.168 85.1203 311.909 87.6827C327.628 88.2299 343.42 85.9229 357.749 80.9871C368.493 77.2857 378.413 72.1362 389.477 69.0637C392.614 68.1925 395.831 67.4965 399.096 66.9764C394.629 68.9969 390.386 71.4247 386.446 74.2302C377.238 80.2364 367.365 87.31 356.921 91.6604C364.631 89.7113 371.988 86.6433 379.113 83.433C400.76 73.0611 418.05 65.7943 442.799 73.0311C443.25 73.3897 443.684 73.7656 444.099 74.1595V74.1599C452.95 85.2577 452.94 118.559 452.94 118.559C453.349 117.568 453.811 116.546 454.317 115.497C461.03 112.99 468.433 114.886 472.465 120.734C477.494 128.027 475.379 138.702 467.741 144.578C462.699 148.456 456.511 149.273 451.44 147.283C451.293 147.871 451.138 148.459 450.973 149.046C447.904 159.967 441.9 168.389 433.43 175.753V204.786C393.18 259.485 329.648 261.018 329.648 261.018L337.732 237.213C337.732 237.213 345.347 226.774 343.853 205.482C343.8 204.718 343.734 203.939 343.656 203.146C343.268 199.201 342.571 194.909 341.467 190.267C334.379 185.975 328.643 181.027 324.089 176.947C312.219 166.312 304.614 155.155 302.95 140.192C302.883 139.59 302.827 138.99 302.777 138.39C297.429 139.757 291.436 138.212 287.081 133.771C280.484 127.044 280.145 116.222 286.323 109.599C291.338 104.225 299.104 103.268 305.379 106.694Z" fill="#F7B7A1"/>
<path d="M311.253 136.492C311.734 130.674 321.219 126.402 332.984 126.402C333.954 126.402 334.942 126.432 335.942 126.492C349.034 127.274 359.263 133.036 358.742 139.333C358.261 145.152 348.774 149.423 337.007 149.423C336.036 149.423 335.05 149.394 334.053 149.335C320.961 148.551 310.732 142.79 311.253 136.492Z" fill="#F18C77"/>
<path d="M403.518 133.88C408.177 132.001 414.217 131.167 420.559 131.553C433.651 132.337 443.879 138.098 443.359 144.395C442.878 150.213 433.391 154.486 421.628 154.486C420.656 154.486 419.67 154.456 418.67 154.396C412.34 154.018 406.485 152.479 402.181 150.065C397.86 147.639 395.618 144.616 395.872 141.555C396.125 138.493 398.839 135.768 403.518 133.88Z" fill="#F18C77"/>
<path d="M214.368 611.671L214.378 611.634L217.847 609.409L217.978 609.326L218.028 609.458C220.626 616.328 223.295 623.308 225.875 630.058C231.954 645.952 238.239 662.387 244.078 678.634C247.997 689.542 249.866 701.018 251.673 712.116C253.14 721.137 254.658 730.464 257.27 739.556C289.682 748.388 333.632 751.38 375.032 750.029C387.978 749.598 400.64 748.75 412.578 747.544C433.714 745.393 452.752 742.068 467.35 737.821L467.497 737.778L468.449 754.949L468.456 755.052H190.985L190.989 754.95C193.194 706.527 204.92 650.307 214.368 611.671Z" fill="#421F35"/>
<path d="M156.096 632.534C159.149 632.534 161.635 634.648 161.635 637.247C161.635 639.844 159.149 641.959 156.096 641.959C153.043 641.959 150.558 639.844 150.558 637.247C150.558 634.648 153.043 632.534 156.096 632.534Z" fill="#421F35"/>
<path d="M342.891 229.719L342.998 229.554C352.344 215.141 344.94 193.098 344.621 192.167L344.535 191.919L344.793 192.055L344.843 192.088C345.473 192.686 351.485 197.98 368.028 199.694C369.437 199.876 370.879 200.014 372.32 200.103L372.433 200.11C374.052 200.203 375.683 200.234 377.286 200.21C377.775 200.216 378.27 200.219 378.774 200.219C403.334 200.219 427.46 180.579 430.133 178.337L430.997 177.673L430.439 178.362C421.775 189.055 411.793 198.408 400.772 206.16C391.955 212.363 382.454 217.561 372.537 221.61C355.648 228.505 343.235 229.687 343.11 229.699L342.891 229.719Z" fill="#421F35"/>
<path d="M416.66 108.105C418.141 108.189 419.464 109.098 420.384 110.667C421.294 112.217 421.703 114.23 421.538 116.338C421.203 120.6 418.582 123.953 415.64 123.953L415.421 123.946C412.39 123.775 410.201 120.082 410.543 115.713C410.708 113.607 411.429 111.656 412.573 110.223C413.729 108.773 415.179 108.011 416.66 108.105Z" fill="#421F35"/>
<path d="M337.59 103.623L337.812 103.63C339.293 103.714 340.616 104.623 341.536 106.191C342.445 107.742 342.855 109.755 342.69 111.863C342.524 113.969 341.803 115.92 340.659 117.353C339.562 118.73 338.198 119.478 336.796 119.478L336.572 119.471C335.091 119.387 333.77 118.478 332.85 116.909C331.941 115.359 331.531 113.345 331.696 111.238C331.861 109.132 332.581 107.182 333.725 105.748C334.822 104.371 336.188 103.623 337.59 103.623Z" fill="#421F35"/>
<path d="M386.74 152.279L385.743 152.156C377.687 151.164 371.687 149.019 367.395 145.599L367.323 145.541L368.012 144.695C372.768 138.358 374.645 130.63 376.459 123.156L376.61 122.542L376.662 122.272C376.866 121.25 377.076 120.193 377.336 119.15L377.533 118.36L377.565 119.167C377.983 129.754 375.658 138.494 370.658 145.145C374.749 148.157 379.937 150.017 385.801 151.967L386.74 152.279Z" fill="#421F35"/>
<path d="M454.425 115.536C453.893 116.639 453.441 117.639 453.048 118.593L452.824 119.138V118.56C452.824 118.227 452.733 85.1729 444.009 74.2209C443.608 73.8419 443.181 73.4716 442.738 73.1183C418.546 66.0518 401.858 72.6499 379.168 83.5198C372.291 86.6192 364.839 89.7617 356.956 91.7553L356.87 91.5723C365.547 87.9575 373.743 82.5179 381.672 77.2567C383.223 76.2273 384.827 75.1631 386.371 74.1545C390.096 71.5017 394.132 69.1626 398.376 67.1947C395.361 67.701 392.385 68.3599 389.512 69.1565C383.017 70.9608 376.812 73.5249 370.81 76.0047C366.59 77.7482 362.227 79.5503 357.793 81.0786C344.85 85.5375 330.639 87.8593 316.425 87.8593C314.919 87.8593 313.408 87.8335 311.904 87.7805L311.26 87.7582L311.873 87.5887C321.613 84.8938 328.959 78.9373 334.32 73.9196C331.062 75.3465 327.95 76.5678 324.829 77.6443C320.765 79.0472 316.642 80.195 312.574 81.0571C307.345 94.5915 306.142 109.625 306.131 109.776L306.072 110.554L305.902 109.788C305.669 108.738 305.454 107.702 305.264 106.71C303.769 98.9571 303.016 90.8361 303.025 82.5688C296.593 83.2337 290.351 83.1422 284.465 82.3003L284.483 82.2035L284.482 82.2031H284.483L284.501 82.106H284.503L284.564 82.1109C286.043 82.1109 289.352 75.0734 290.173 73.0441C291.548 69.6331 292.24 66.1094 292.783 62.809C293.964 55.6638 296.132 48.1719 298.891 41.7135C301.363 35.9248 305.506 30.516 311.203 25.6385C316.314 21.2634 322.684 17.3673 329.629 14.3718C341.001 9.46636 353.075 7.64304 363.645 9.23637C379.543 3.03298 393.804 0 407.118 0C408.258 0 409.391 0.0219024 410.515 0.0664168C431.124 0.877567 449.495 10.0906 457.313 23.5375C460.608 29.2088 462.326 36.3389 462.157 43.6216C469.762 46.7189 474.523 50.8884 476.712 56.3682C481.758 69.0078 471.592 85.9957 462.621 100.983C459.511 106.18 456.573 111.087 454.425 115.536Z" fill="#421F35"/>
<path d="M344.612 86.1052L344.192 85.7646L344.732 85.9416C347.344 86.798 349.346 87.6957 351.252 89.5201C354.457 92.5877 355.203 95.4359 355.404 99.3193L355.425 99.7012L355.189 99.3751C354.757 98.7727 354.031 98.3735 353.333 97.9877C352.957 97.7817 352.575 97.5701 352.229 97.3267C352.491 98.1467 352.611 99.0462 352.598 100.065L352.595 100.356L352.389 100.123C350.98 98.5166 329.342 95.1918 314.005 102.183L313.679 102.332L313.846 102.052C320.518 90.9227 333.946 88.4468 341.609 90.2087L341.595 90.1931C340.822 89.3714 339.947 88.439 339.372 87.4912L339.302 87.3778L339.449 87.3499C341.15 87.0361 345.388 87.8618 347.041 89.2838C346.896 88.9979 346.738 88.7121 346.568 88.4323C346.155 87.7604 345.48 86.8104 344.612 86.1052Z" fill="#421F35"/>
<path d="M446.453 109.984L446.575 110.282L446.277 110.096C432.24 101.346 410.273 102.063 408.607 103.486L408.367 103.692L408.41 103.404C408.564 102.397 408.833 101.52 409.227 100.736C408.845 100.937 408.431 101.101 408.026 101.26C407.268 101.559 406.486 101.868 405.957 102.412L405.672 102.706L405.755 102.331C406.594 98.512 407.798 95.7804 411.477 93.1236C413.664 91.5437 415.794 90.8933 418.521 90.3563L419.089 90.2447L418.617 90.5323C417.635 91.1297 416.812 91.9882 416.296 92.604C416.081 92.859 415.875 93.1233 415.688 93.39C417.558 92.1804 421.898 91.8666 423.522 92.3786L423.662 92.4238L423.576 92.5276C422.848 93.3985 421.825 94.2192 420.925 94.9427L420.912 94.9523C428.791 94.1291 441.674 98.1675 446.453 109.984Z" fill="#421F35"/>
<path d="M231.516 628.35L224.914 607.054L224.894 606.986L224.964 606.947C288.719 571.118 342.986 530.006 377.284 501.826C414.448 471.293 436.819 448.945 437.041 448.723L437.222 448.845C407.879 482.494 376.452 514.294 343.825 543.358C366.942 561.538 395.038 575.273 425.086 583.082L425.197 583.111L416.739 606.677L416.705 606.771L416.594 606.743C382.095 597.777 349.888 581.966 323.451 561.019C269.925 606.147 232.027 628.057 231.651 628.274L231.516 628.35Z" fill="#421F35"/>
<path d="M276.622 439.805C287.31 423.533 305.782 399.112 333.094 375.178L333.266 375.31C333.142 375.435 320.617 388.032 306.067 406.946C292.638 424.401 274.688 450.96 265.429 478.359L265.418 478.393L247.477 489.257L247.312 489.357L245.932 477.095L245.928 477.046L245.971 477.013C246.05 476.95 254.051 470.783 259.823 469.639C260.201 468.764 265.422 456.858 276.622 439.805Z" fill="#421F35"/>
<path d="M329.324 264.523L329.706 264.72C329.754 264.744 334.313 267.112 338.836 271.639C343.013 275.817 348.018 282.745 348.133 292.014L348.138 292.392L329.548 264.853L329.324 264.523Z" fill="#421F35"/>
<path d="M319.025 216.715L318.414 217.328C318.084 217.659 285.208 250.787 262.903 282.026L262.824 282.136L249.479 270.071L249.415 270.014L249.465 269.949C249.625 269.745 266.022 249.18 318.259 217.184L319.025 216.715Z" fill="#421F35"/>
<path d="M407.27 159.791L407.778 159.691L408.238 159.934L408.355 160.375L408.068 160.759C400.786 165.123 394.458 167.156 388.157 167.156C385.328 167.156 382.544 166.748 379.642 165.906C379.281 165.8 379.088 165.463 379.211 165.156C379.335 164.848 379.717 164.678 380.093 164.786H380.095C388.875 167.331 397.258 165.792 407.27 159.791Z" fill="#421F35"/>
<path d="M458.502 131.107C457.295 130.517 455.712 130.987 454.635 131.615C453.086 132.518 451.93 133.925 451.462 135.475H451.46C451.367 135.785 451.017 135.973 450.644 135.905C450.28 135.839 450.042 135.542 450.103 135.229C450.23 134.589 450.338 133.941 450.445 133.315L450.449 133.29C450.784 131.322 451.13 129.286 452.003 127.377C453.391 124.351 455.997 122.262 458.973 121.787C461.499 121.381 464.194 122.202 465.85 123.874C467.508 125.546 468.001 127.948 467.108 129.996L466.743 130.329L466.214 130.345L465.825 130.039L465.805 129.585C466.518 127.956 466.108 125.967 464.787 124.636C463.471 123.306 461.254 122.624 459.226 122.95C456.725 123.349 454.508 125.165 453.301 127.807C452.681 129.154 452.342 130.605 452.082 131.993C452.604 131.475 453.196 131.021 453.848 130.641C455.27 129.808 457.416 129.222 459.187 130.08C460.54 130.732 461.369 132.17 461.299 133.744C461.241 135.082 460.616 136.334 460.065 137.439C459.954 137.655 459.707 137.796 459.409 137.796H459.402L459.153 137.751C458.8 137.624 458.636 137.276 458.785 136.974C459.314 135.915 459.861 134.819 459.911 133.7C459.961 132.562 459.409 131.545 458.502 131.107Z" fill="#421F35"/>
<path d="M290.098 120.064L289.661 120.324C289.279 120.395 288.92 120.197 288.832 119.879C288.266 117.746 289.13 115.42 291.034 113.952C292.932 112.484 295.736 111.982 298.179 112.662C301.053 113.468 303.308 115.834 304.212 118.99C304.78 120.975 304.805 123.025 304.83 125.009V125.043C304.837 125.68 304.844 126.339 304.871 126.985C304.884 127.302 304.604 127.571 304.24 127.594L303.754 127.495L303.487 127.076C303.263 125.486 302.333 123.962 300.94 122.892C299.972 122.146 298.482 121.505 297.186 121.951C296.223 122.282 295.515 123.228 295.386 124.361C295.26 125.477 295.63 126.62 295.99 127.735C296.092 128.049 295.873 128.375 295.49 128.465L295.321 128.482C295.009 128.482 294.733 128.304 294.649 128.045C294.276 126.892 293.853 125.584 294.003 124.248C294.181 122.681 295.226 121.349 296.666 120.854C298.566 120.207 300.595 121.031 301.87 122.015C302.458 122.463 302.976 122.981 303.414 123.557C303.374 122.155 303.265 120.681 302.861 119.269C302.252 117.141 300.59 114.583 297.745 113.784C295.804 113.238 293.484 113.658 291.967 114.827C290.454 115.995 289.739 117.92 290.189 119.618L290.098 120.064Z" fill="#421F35"/>
<path d="M411.474 305.823L410.95 305.925L410.536 305.692L393.029 283.405L376.869 337.07L376.509 337.462L375.953 337.478L375.928 337.469C375.817 337.432 364.756 333.619 347.381 339.762C325.464 347.505 292.17 371.626 258.014 442.568C257.908 442.789 257.657 442.934 257.356 442.932H257.35L257.11 442.891C256.755 442.768 256.585 442.422 256.73 442.12C291.065 370.803 324.687 346.5 346.845 338.669C362.251 333.228 372.695 335.315 375.712 336.148L392.069 281.829C392.137 281.603 392.356 281.431 392.628 281.392C392.894 281.355 393.17 281.457 393.322 281.647L411.267 304.508C426.451 295.454 443.372 278.1 454.903 265.123C467.724 250.694 476.763 238.538 476.851 238.419C477.057 238.143 477.48 238.06 477.81 238.236C478.134 238.41 478.231 238.775 478.028 239.051C476.525 241.067 440.887 288.638 411.474 305.823Z" fill="#421F35"/>
<path d="M450.467 433.661L450.766 434.035L450.666 434.479L443.217 444.08L442.649 444.354L442.283 444.26L442.254 444.249L441.955 443.874L442.055 443.43L449.504 433.828V433.827C449.719 433.554 450.153 433.48 450.467 433.661Z" fill="#421F35"/>
<path d="M452.141 438.894L452.654 438.997L452.937 439.381L452.819 439.821C450.44 442.664 447.602 445.196 444.384 447.349L443.948 447.483L443.45 447.276L443.409 447.249L443.264 446.815L443.524 446.418C446.64 444.336 449.383 441.885 451.683 439.135L452.141 438.894Z" fill="#421F35"/>
<path d="M344.022 364.847L344.024 364.848C344.298 365.074 344.304 365.449 344.04 365.683C341.226 368.163 338.766 370.937 336.724 373.925L336.708 373.948L336.14 374.227L335.803 374.15L335.774 374.14C335.444 373.976 335.33 373.614 335.525 373.333C337.619 370.261 340.147 367.412 343.04 364.863C343.3 364.629 343.744 364.621 344.022 364.847Z" fill="#421F35"/>
<path d="M337.337 365.377L337.749 365.089L338.275 365.133C338.613 365.286 338.741 365.644 338.563 365.933C337.203 368.103 335.612 370.186 333.827 372.125L333.287 372.359L332.884 372.241L332.85 372.225C332.55 372.024 332.497 371.652 332.733 371.395C334.462 369.516 336.011 367.491 337.337 365.377Z" fill="#421F35"/>
<path d="M402.45 463.695L402.903 463.934C403.124 464.2 403.052 464.569 402.742 464.758C374.88 481.728 340.682 491.658 306.422 492.717C306.046 492.717 305.741 492.467 305.727 492.148C305.714 491.823 306.015 491.547 306.397 491.535C340.363 490.484 374.293 480.634 401.933 463.797L402.45 463.695Z" fill="#421F35"/>
<path d="M279.311 490.707C279.29 491.019 278.985 491.264 278.612 491.264L278.578 491.263C278.199 491.244 277.902 490.965 277.922 490.64C278.999 474.207 284.194 457.757 292.941 443.071C293.108 442.784 293.527 442.668 293.873 442.809L293.876 442.811L294.221 443.154L294.181 443.604C285.516 458.148 280.376 474.435 279.311 490.707Z" fill="#421F35"/>
<path d="M265.579 481.727C265.968 481.658 266.325 481.86 266.404 482.178L269.536 494.355C269.617 494.675 269.38 494.99 268.995 495.061L268.858 495.073C268.534 495.073 268.247 494.878 268.179 494.609L265.047 482.432C264.965 482.112 265.203 481.796 265.576 481.727H265.579Z" fill="#421F35"/>
<path d="M261.352 485.643L261.854 485.529C262.234 485.562 262.515 485.852 262.476 486.176C261.94 490.69 260.997 495.197 259.676 499.574C259.595 499.836 259.319 500.018 259.002 500.018H258.995L258.828 499.999L258.403 499.728L258.328 499.281C259.635 494.952 260.564 490.502 261.091 486.056L261.352 485.643Z" fill="#421F35"/>
<path d="M107.688 589.03C110.49 590.01 113.159 591.272 115.619 592.785C115.929 592.975 115.999 593.345 115.777 593.611L115.221 593.863L114.836 593.757L114.804 593.743C112.437 592.288 109.865 591.07 107.161 590.125L106.783 589.804V589.354C106.931 589.053 107.337 588.902 107.688 589.03Z" fill="#421F35"/>
<path d="M108.118 592.254L111.024 594.727C111.295 594.957 111.295 595.333 111.024 595.563L110.534 595.744L110.079 595.585L107.137 593.089C106.865 592.859 106.865 592.483 107.137 592.253C107.408 592.023 107.847 592.023 108.118 592.254Z" fill="#421F35"/>
<path d="M122.999 578.951C123.381 578.951 123.693 579.216 123.693 579.542C123.684 588.219 124.991 596.871 127.578 605.26V605.261C127.673 605.577 127.449 605.901 127.067 605.984L126.904 606.001C126.59 606.001 126.314 605.82 126.23 605.56C123.616 597.068 122.295 588.315 122.305 579.542C122.305 579.216 122.616 578.951 122.999 578.951Z" fill="#421F35"/>
<path d="M153.796 625.06L154.241 624.819L154.755 624.904L155.046 625.3C155.386 626.959 155.54 628.662 155.503 630.36C155.497 630.68 155.185 630.939 154.809 630.939H154.798H154.796L154.307 630.759L154.115 630.337C154.151 628.721 154.004 627.094 153.681 625.501L153.796 625.06Z" fill="#421F35"/>
<path d="M148.9 627.349C149.243 627.206 149.655 627.311 149.834 627.602L152.05 631.226C152.227 631.516 152.095 631.874 151.756 632.024L151.417 632.098L150.834 631.798L148.604 628.147L148.556 627.695L148.9 627.349Z" fill="#421F35"/>
<path d="M160.54 615.356L161.067 615.309L161.481 615.594C164.134 619.751 167.171 623.778 170.507 627.561C170.737 627.822 170.674 628.193 170.369 628.389L169.942 628.514L169.435 628.3L169.394 628.27C166.018 624.438 162.945 620.362 160.26 616.158C160.079 615.871 160.203 615.512 160.54 615.356Z" fill="#421F35"/>
<path d="M131.423 596.467L131.936 596.564L132.215 596.964C133.484 604.126 135.668 611.188 138.708 617.953L138.694 618.403L138.285 618.721L138.059 618.755C137.773 618.755 137.512 618.603 137.41 618.376C134.334 611.526 132.122 604.381 130.84 597.139L130.969 596.7L131.423 596.467Z" fill="#421F35"/>
<path d="M286.658 451.022L286.084 451.311L285.756 451.239L285.729 451.23C285.394 451.072 285.272 450.712 285.457 450.425C288.994 444.996 292.778 439.551 296.704 434.245C296.905 433.972 297.335 433.888 297.661 434.06L297.968 434.428L297.88 434.876C293.99 440.131 290.22 445.556 286.674 450.999L286.658 451.022Z" fill="#421F35"/>
<path d="M387.208 466.926C394.488 463.094 401.324 458.602 407.528 453.574L408.007 453.411L408.025 453.412L408.509 453.595L408.702 454.018L408.487 454.431C402.218 459.512 395.304 464.053 387.941 467.931L387.561 468.027L386.998 467.761L386.982 467.739C386.781 467.462 386.882 467.097 387.208 466.926Z" fill="#421F35"/>
<path d="M308.663 497.745C308.308 497.745 308.012 497.519 307.973 497.221C307.93 496.897 308.204 496.604 308.583 496.566L326.475 494.849C326.898 494.822 327.198 495.032 327.241 495.37C327.284 495.694 327.011 495.987 326.631 496.024L308.735 497.742L308.663 497.745Z" fill="#421F35"/>
<path d="M387.194 557.499L387.095 557.942L386.527 558.216L386.161 558.123L386.132 558.11C375.943 552.38 366.963 545.334 359.436 537.168L359.291 536.734L359.551 536.336L360.067 536.215L360.526 536.437C367.967 544.506 376.839 551.467 386.896 557.124L387.194 557.499Z" fill="#421F35"/>
<path d="M372.171 540.984L371.733 541.121L371.237 540.916L364.073 533.255L363.926 532.819L364.184 532.424C364.492 532.22 364.926 532.265 365.159 532.519L372.283 540.153L372.43 540.589L372.171 540.984Z" fill="#421F35"/>
<path d="M264.392 243.12L264.323 243.123C263.966 243.123 263.67 242.896 263.631 242.595C262.548 233.919 262.521 225.657 262.494 217.667H262.609L262.494 217.624C262.451 205.305 262.41 193.669 258.762 180.979C258.674 180.662 258.902 180.342 259.273 180.264C259.662 180.19 260.022 180.379 260.114 180.697C263.799 193.532 263.839 205.243 263.882 217.643V217.664C263.909 225.624 263.939 233.855 265.015 242.47L264.864 242.903L264.392 243.12Z" fill="#421F35"/>
<path d="M269.477 246.938L269.418 246.94C269.057 246.94 268.758 246.709 268.726 246.403L267.259 232.954C267.223 232.629 267.505 232.341 267.887 232.311L267.944 232.309C268.308 232.309 268.608 232.537 268.642 232.846L270.11 246.295L269.954 246.726L269.477 246.938Z" fill="#421F35"/>
<path d="M204.185 175.645L204.108 175.648C203.753 175.648 203.457 175.422 203.418 175.122C201.365 159.482 197.081 144.077 190.688 129.333C190.554 129.027 190.74 128.687 191.097 128.573C191.464 128.46 191.857 128.612 191.991 128.923C198.427 143.769 202.738 159.269 204.798 174.99L204.651 175.425L204.185 175.645Z" fill="#421F35"/>
<path d="M190.56 141.889L190.419 141.902C190.091 141.902 189.804 141.704 189.739 141.432L185.96 125.937C185.883 125.618 186.125 125.305 186.498 125.239L187.02 125.318L187.321 125.697L191.1 141.192C191.177 141.511 190.935 141.824 190.56 141.889Z" fill="#421F35"/>
<path d="M152.589 180.34L152.423 180.771L151.948 180.974L151.896 180.976C151.534 180.976 151.232 180.737 151.204 180.431C148.782 153.684 150.096 126.685 155.112 100.185C155.178 99.8534 155.511 99.6386 155.911 99.6966C156.289 99.7478 156.546 100.051 156.487 100.373C151.487 126.776 150.175 153.68 152.589 180.34Z" fill="#421F35"/>
<path d="M150.243 110.177C150.196 110.468 149.899 110.687 149.547 110.687H149.545L149.458 110.681C149.078 110.637 148.814 110.338 148.864 110.015L150.313 101.13C150.365 100.805 150.707 100.589 151.098 100.626C151.478 100.671 151.743 100.97 151.693 101.293L150.243 110.177Z" fill="#421F35"/>
<path d="M115.492 150.099L110.404 134.373C110.302 134.059 110.521 133.733 110.892 133.646C111.267 133.559 111.643 133.747 111.742 134.06L116.831 149.785C116.932 150.1 116.713 150.426 116.331 150.515L116.161 150.533C115.85 150.533 115.574 150.355 115.492 150.099Z" fill="#421F35"/>
<path d="M108.009 136.667L108.104 136.663C108.45 136.663 108.742 136.873 108.794 137.173C109.147 139.368 109.76 141.545 110.61 143.648L110.579 144.099L110.163 144.403L109.955 144.431C109.661 144.431 109.396 144.271 109.299 144.032C108.417 141.86 107.783 139.606 107.415 137.334C107.363 137.011 107.63 136.712 108.01 136.668L108.009 136.667Z" fill="#421F35"/>
<path d="M218.521 234.932L218.148 235.024L217.582 234.751L217.567 234.729C205.802 218.04 195.437 200.434 186.756 182.4C186.611 182.098 186.781 181.753 187.136 181.63C187.497 181.506 187.893 181.648 188.04 181.953C196.697 199.935 207.032 217.486 218.761 234.122C218.957 234.401 218.849 234.765 218.521 234.932Z" fill="#421F35"/>
<path d="M205.262 221.925L205.676 222.214C209.688 228.635 213.987 235.03 218.451 241.222L218.535 241.67L218.223 242.036L217.845 242.131L217.282 241.863L217.266 241.842C212.788 235.631 208.477 229.214 204.45 222.768C204.271 222.481 204.4 222.123 204.737 221.969L205.262 221.925Z" fill="#421F35"/>
<path d="M481.728 241.604L482.258 241.588L482.647 241.9C484.671 245.718 486.172 249.738 487.104 253.849C487.179 254.168 486.932 254.48 486.546 254.543L486.424 254.552C486.091 254.552 485.804 254.351 485.743 254.073C484.827 250.053 483.361 246.121 481.38 242.387C481.224 242.091 481.38 241.739 481.728 241.604Z" fill="#421F35"/>
<path d="M477.9 252.259H477.898L477.746 252.242C477.375 252.165 477.147 251.844 477.235 251.528C478.067 248.654 478.321 245.711 477.991 242.781C477.954 242.457 478.237 242.167 478.615 242.136L479.117 242.26L479.374 242.668C479.718 245.732 479.454 248.808 478.588 251.809C478.51 252.074 478.232 252.259 477.9 252.259Z" fill="#421F35"/>
<path d="M377.501 322.449C377.409 322.692 377.144 322.855 376.828 322.855H376.823L376.626 322.827L376.221 322.534L376.181 322.082C379.125 314.393 381.235 306.43 382.449 298.41L382.728 298.011L383.23 297.901C383.607 297.943 383.876 298.239 383.829 298.564C382.599 306.668 380.469 314.705 377.501 322.449Z" fill="#421F35"/>
<path d="M416.891 296.627L416.425 296.785L415.95 296.604L415.911 296.579C415.656 296.335 415.68 295.961 415.968 295.745C421.57 291.498 426.909 286.92 431.842 282.139C432.091 281.897 432.527 281.87 432.821 282.085L433.056 282.491L432.882 282.92C427.915 287.737 422.535 292.349 416.891 296.627Z" fill="#421F35"/>
<path d="M328.56 340.195C323.175 344.35 318.019 348.827 313.233 353.503L312.713 353.714L312.288 353.579L312.252 353.56L312.014 353.155L312.184 352.727C316.999 348.024 322.196 343.513 327.628 339.32C327.909 339.102 328.347 339.124 328.609 339.359V339.36L328.788 339.786L328.56 340.195Z" fill="#421F35"/>
<path d="M323.964 263.393L324.329 263.72L324.315 264.171L323.928 264.485C316.264 267.002 309.461 271.551 304.771 277.294L304.224 277.55L304.043 277.533C303.765 277.477 303.559 277.286 303.514 277.046C302.747 272.741 302.537 268.354 302.892 264.007C302.917 263.686 303.215 263.457 303.613 263.457H303.633C304.013 263.48 304.303 263.763 304.276 264.087C303.97 267.851 304.097 271.664 304.653 275.422C309.43 270.065 316.088 265.792 323.428 263.381L323.964 263.393Z" fill="#421F35"/>
<path d="M315.095 279.1L315.058 279.081L314.837 278.67L315.02 278.246C318.337 275.19 321.92 272.252 325.667 269.511L326.172 269.37L326.646 269.573C326.895 269.821 326.861 270.195 326.572 270.407C322.876 273.11 319.332 276.017 316.042 279.048L315.533 279.246L315.095 279.1Z" fill="#421F35"/>
<path d="M297.672 327.895C292.536 337.463 287.226 347.357 283.485 357.496C283.395 357.743 283.13 357.91 282.809 357.91H282.804L282.615 357.884L282.205 357.593L282.16 357.143C285.923 346.94 291.247 337.019 296.396 327.424L296.43 327.362C303.495 314.2 310.8 300.591 314.066 286.224C314.138 285.9 314.484 285.693 314.88 285.755C315.255 285.817 315.502 286.129 315.427 286.447C312.134 300.951 304.796 314.623 297.69 327.863L297.672 327.895Z" fill="#421F35"/>
<path d="M319.308 294.182L318.83 294.383C318.62 294.396 318.457 294.345 318.322 294.245L318.091 293.832C318.005 292.773 318.493 291.701 319.4 290.964C319.975 290.5 320.626 290.338 321.201 290.513C321.773 290.691 322.132 291.15 322.266 291.874C322.777 294.449 322.286 297.152 320.886 299.485C320.52 300.097 319.986 300.864 319.106 301.373C318.724 301.594 318.357 301.709 317.984 301.72H317.934C317.032 301.72 316.342 301.081 316.128 300.45C315.929 299.862 316.037 299.272 316.123 298.799C316.179 298.502 316.467 298.3 316.813 298.3L316.919 298.307L317.374 298.544L317.498 298.983C317.426 299.36 317.347 299.785 317.462 300.12C317.545 300.365 317.765 300.531 317.919 300.538L318.324 300.395C318.948 300.034 319.36 299.432 319.647 298.947C320.914 296.84 321.359 294.397 320.895 292.068C320.846 291.807 320.782 291.694 320.748 291.649L320.348 291.829C319.746 292.325 319.418 293.042 319.475 293.753L319.308 294.182Z" fill="#421F35"/>
<path d="M305.861 322.896C305.483 322.896 305.178 322.644 305.167 322.313C305.151 321.818 305.126 321.068 305.649 320.476C305.992 320.088 306.599 319.864 307.202 319.899C307.702 319.936 308.113 320.163 308.331 320.522C308.48 320.776 308.498 321.028 308.505 321.266C308.566 324.108 307.772 326.939 306.209 329.452C305.694 330.285 304.945 331.321 303.722 331.934C303.346 332.122 303.005 332.214 302.664 332.214H302.661L302.406 332.194C301.743 332.09 301.207 331.574 301.103 330.938C301.028 330.462 301.18 330.002 301.293 329.667C301.39 329.357 301.774 329.176 302.145 329.257H302.147L302.566 329.539L302.625 329.993C302.539 330.258 302.451 330.531 302.478 330.754L302.697 331.029L303.014 330.916C303.936 330.454 304.552 329.596 304.983 328.899C306.431 326.568 307.168 323.943 307.116 321.307L307.028 321.108L306.741 321.208C306.544 321.454 306.542 321.859 306.556 322.287C306.567 322.613 306.263 322.886 305.861 322.896Z" fill="#421F35"/>
<path d="M442.172 660.586L441.596 660.88L441.249 660.803C415.991 649.236 391.193 636.347 367.551 622.495C346.749 610.308 325.701 596.475 312.643 577.931C312.446 577.652 312.555 577.288 312.883 577.121L313.416 577.053L313.837 577.324C326.754 595.673 347.665 609.41 368.337 621.521C391.934 635.347 416.686 648.212 441.904 659.761L442.242 660.11L442.187 660.562L442.172 660.586Z" fill="#421F35"/>
<path d="M326.149 601.08L325.661 601.26L325.204 601.099L325.168 601.077C317.731 594.711 311.359 587.506 306.223 579.658C306.04 579.372 306.16 579.012 306.492 578.855L306.494 578.854C306.833 578.699 307.25 578.797 307.44 579.083C312.51 586.835 318.806 593.955 326.154 600.244C326.425 600.477 326.421 600.852 326.149 601.08Z" fill="#421F35"/>
<path d="M449.029 657.68H449.022L448.778 657.638C442.231 655.326 436.176 652.176 430.787 648.274L430.543 647.872L430.708 647.441V647.439C430.955 647.195 431.396 647.164 431.687 647.373C436.966 651.194 442.893 654.28 449.311 656.545L449.686 656.866L449.684 657.317C449.581 657.537 449.332 657.68 449.029 657.68Z" fill="#421F35"/>
<path d="M476.99 720.003H476.993C477.35 719.875 477.751 720.008 477.906 720.309L481.039 726.398C481.192 726.695 481.032 727.044 480.659 727.182L480.404 727.225C480.128 727.225 479.879 727.087 479.768 726.871L476.635 720.783C476.482 720.485 476.642 720.135 476.99 720.003Z" fill="#421F35"/>
<path d="M469.697 727.655L470.206 727.543C472.771 727.809 475.314 728.529 477.563 729.625L477.888 729.981L477.82 730.431L477.807 730.454L477.235 730.736L476.902 730.66L476.875 730.65C474.786 729.632 472.42 728.964 470.037 728.717C469.657 728.678 469.386 728.383 469.431 728.058L469.697 727.655Z" fill="#421F35"/>
<path d="M272.687 727.135L273.082 726.833L273.611 726.856L273.969 727.193L273.939 727.644C272.377 730.426 270.402 733.038 268.073 735.406L267.546 735.625L267.132 735.496L267.095 735.48L266.849 735.079L267.01 734.646C269.261 732.357 271.172 729.829 272.687 727.135Z" fill="#421F35"/>
<path d="M264.715 729.878L264.64 729.874L264.177 729.653L264.032 729.217L265.472 718.951L265.739 718.552L266.243 718.435L266.707 718.656L266.852 719.092L265.412 729.358C265.37 729.654 265.074 729.878 264.715 729.878Z" fill="#421F35"/>
<path d="M249.067 659.025L248.75 659.093L248.169 658.795L248.156 658.771C243.542 651.351 239.697 643.527 236.73 635.516L236.776 635.066L237.185 634.774L237.714 634.812L238.056 635.16C240.998 643.102 244.809 650.859 249.382 658.218C249.56 658.506 249.432 658.864 249.067 659.025Z" fill="#421F35"/>
<path d="M240.93 630.129L241.299 629.806L241.829 629.797L242.213 630.116C244.836 635.303 248.122 640.259 251.98 644.847L252.1 645.287L251.82 645.671L251.404 645.79L250.893 645.565L250.85 645.535C246.935 640.88 243.6 635.85 240.938 630.582L240.93 630.129Z" fill="#421F35"/>
<path d="M293.712 628.348L293.963 627.949C294.262 627.743 294.698 627.781 294.942 628.03C327.533 661.725 361.237 696.568 403.132 723.146L403.403 723.534L403.272 723.973L402.725 724.219L402.334 724.107L402.3 724.093C360.272 697.429 326.514 662.531 293.869 628.78L293.712 628.348Z" fill="#421F35"/>
<path d="M326.181 670.189L326.701 670.084L327.149 670.32C339.418 684.695 353.647 697.874 369.444 709.49C369.736 709.702 369.767 710.077 369.519 710.324L368.996 710.537L368.573 710.402L368.54 710.383C352.661 698.711 338.36 685.465 326.027 671.015L325.903 670.574L326.181 670.189Z" fill="#421F35"/>
<path d="M189.218 566.88C188.888 566.88 188.601 566.68 188.538 566.405L188.639 565.962L189.083 565.71C233.676 558.187 276.663 545.196 316.852 527.1C317.185 526.954 317.607 527.059 317.791 527.347C317.97 527.634 317.841 527.993 317.503 528.147C277.192 546.296 234.076 559.324 189.343 566.871L189.218 566.88Z" fill="#421F35"/>
<path d="M317.069 522.03L302.31 529.261L301.946 529.347L301.374 529.066L301.358 529.043C301.17 528.76 301.283 528.398 301.614 528.235L316.375 521.004C316.707 520.843 317.134 520.94 317.322 521.221H317.325C317.512 521.504 317.399 521.867 317.069 522.03Z" fill="#421F35"/>
<path d="M170.217 572.891C170.203 572.565 170.502 572.29 170.884 572.277C183.083 571.87 195.397 570.86 207.482 569.274C207.862 569.218 208.217 569.443 208.276 569.768L208.15 570.206L207.695 570.442C195.569 572.034 183.2 573.049 170.911 573.458C170.538 573.459 170.233 573.21 170.217 572.891Z" fill="#421F35"/>
<path d="M231.911 492.219L231.443 480.042C231.432 479.716 231.733 479.443 232.115 479.431H232.138C232.513 479.431 232.818 479.681 232.832 480.003L233.3 492.181C233.311 492.506 233.011 492.779 232.606 492.791C232.23 492.791 231.925 492.541 231.911 492.219Z" fill="#421F35"/>
<path d="M229.424 493.563C229.089 493.563 228.802 493.361 228.741 493.078L227.017 485.076C226.949 484.755 227.2 484.446 227.576 484.387H227.578C227.949 484.346 228.315 484.546 228.383 484.864L230.106 492.866C230.174 493.187 229.923 493.495 229.536 493.555L229.424 493.563Z" fill="#421F35"/>
<path d="M197.292 514.286L197.826 514.312L198.178 514.65L198.147 515.101L194.79 520.999C194.675 521.203 194.44 521.331 194.148 521.331H194.142L193.863 521.274L193.51 520.935L193.542 520.484L196.898 514.586L197.292 514.286Z" fill="#421F35"/>
<path d="M191.927 520.381L191.878 520.38L191.403 520.175L191.238 519.745C191.441 517.44 191.824 515.11 192.368 512.823L192.669 512.445L193.188 512.361C193.563 512.427 193.807 512.739 193.73 513.058C193.199 515.279 192.825 517.559 192.622 519.836C192.595 520.142 192.292 520.381 191.927 520.381Z" fill="#421F35"/>
<path d="M277.228 301.376L277.639 301.662L277.692 302.111L275.819 307.417C275.733 307.665 275.462 307.838 275.141 307.838H275.136L274.953 307.814L274.541 307.528L274.489 307.079L276.362 301.772C276.472 301.459 276.834 301.274 277.228 301.376Z" fill="#421F35"/>
<path d="M250.96 339.038H250.954L250.705 338.994C250.352 338.866 250.187 338.518 250.336 338.219C257.939 322.921 267.282 308.159 278.101 294.343L278.544 294.092L279.065 294.179C279.383 294.359 279.469 294.727 279.259 294.999C268.485 308.755 259.186 323.451 251.616 338.678C251.507 338.897 251.259 339.038 250.96 339.038Z" fill="#421F35"/>
<path d="M249.981 329.56L250.352 329.883L250.345 330.336L245.779 339.434C245.673 339.651 245.424 339.791 245.125 339.791H245.119L244.867 339.746L244.496 339.423L244.503 338.971L249.069 329.872L249.447 329.556L249.981 329.56Z" fill="#421F35"/>
<path d="M214.557 401.213C209.882 416.636 207.068 432.643 204.35 448.123C204.298 448.415 204.009 448.626 203.654 448.626L203.561 448.62L203.104 448.389L202.975 447.948L202.986 447.888C205.709 432.397 208.522 416.378 213.208 400.917C218.504 383.433 225.499 368.981 234.597 356.738C234.792 356.465 235.226 356.385 235.554 356.554L235.862 356.925L235.769 357.37C226.751 369.512 219.812 383.853 214.557 401.213Z" fill="#421F35"/>
<path d="M215.771 422.256H215.768L215.732 422.255C215.352 422.238 215.056 421.96 215.076 421.633C215.73 411.293 218.053 401.08 221.976 391.281C222.1 390.972 222.485 390.809 222.86 390.911C223.222 391.018 223.415 391.355 223.29 391.662C219.407 401.361 217.112 411.466 216.465 421.697C216.445 422.01 216.14 422.256 215.771 422.256Z" fill="#421F35"/>
<path d="M224.091 447.756C224.446 447.876 224.62 448.22 224.48 448.524C220.33 457.358 217.44 466.617 215.891 476.044C215.844 476.335 215.547 476.554 215.194 476.554H215.192L215.104 476.547C214.726 476.503 214.459 476.204 214.511 475.88C216.081 466.354 219 457.002 223.187 448.085H223.189C223.331 447.781 223.743 447.635 224.091 447.756Z" fill="#421F35"/>
<path d="M423.901 538.593L424.136 538.999L423.962 539.428L423.447 539.637L423.02 539.5L422.983 539.482C409.952 529.744 398.588 518.52 389.207 506.123C388.999 505.85 389.092 505.483 389.413 505.306L389.936 505.224L390.374 505.483C399.692 517.794 410.972 528.934 423.901 538.593Z" fill="#421F35"/>
<path d="M404.932 515.511L404.504 515.637L404 515.423L403.959 515.394C400.393 511.365 397.172 507.066 394.386 502.617C394.208 502.328 394.336 501.969 394.673 501.817L395.203 501.774L395.612 502.061C398.36 506.449 401.54 510.695 405.068 514.682L405.201 515.12L404.932 515.511Z" fill="#421F35"/>
<path d="M403.172 254.377L403.217 254.378L403.692 254.577L403.866 255.006L403.631 255.412C396.15 260.999 388.368 266.473 380.5 271.682L380.068 271.815L379.566 271.606L379.528 271.578L379.385 271.142L379.65 270.749C387.515 265.538 395.275 260.079 402.715 254.523L403.172 254.377Z" fill="#421F35"/>
<path d="M383.327 266.079L382.886 266.217L382.391 266.013L382.35 265.987C382.111 265.732 382.161 265.358 382.459 265.155L393.645 257.55C393.943 257.347 394.38 257.389 394.622 257.643C394.859 257.898 394.811 258.27 394.513 258.474L383.327 266.079Z" fill="#421F35"/>
<path d="M448.565 210.56L448.039 210.778L447.62 210.648L447.586 210.631C447.294 210.42 447.256 210.045 447.502 209.797C449.886 207.39 452.062 204.792 453.968 202.077V202.076L454.398 201.804L454.92 201.871L455.239 202.235L455.162 202.681C453.224 205.445 451.005 208.094 448.565 210.56Z" fill="#421F35"/>
<path d="M442.237 209.022L441.74 208.816L441.699 208.789L441.554 208.355L441.815 207.959L452.828 200.582L453.339 200.459L453.803 200.681L453.948 201.116L453.688 201.51L442.674 208.886L442.237 209.022Z" fill="#421F35"/>
<path d="M428.008 217.844L427.594 217.716L427.558 217.7C427.266 217.494 427.223 217.121 427.463 216.868C433.781 210.343 438.537 202.593 441.224 194.454L441.547 194.099L442.079 194.043L442.497 194.324L442.558 194.773C439.824 203.069 434.976 210.97 428.539 217.62L428.008 217.844Z" fill="#421F35"/>
<path d="M371.271 254.794C371.004 254.794 370.757 254.662 370.642 254.455C370.48 254.161 370.629 253.807 370.975 253.669C382.025 249.256 392.518 243.777 402.16 237.385L402.664 237.262L403.134 237.487L403.276 237.923L403.011 238.318C393.291 244.762 382.712 250.287 371.543 254.746L371.271 254.794Z" fill="#421F35"/>
<path d="M340.265 263.927C339.903 263.927 339.605 263.696 339.573 263.389L339.732 262.958L340.202 262.748C344.68 262.401 349.162 261.772 353.524 260.876C353.898 260.809 354.27 261 354.361 261.313C354.449 261.63 354.221 261.949 353.847 262.026V262.027C349.422 262.934 344.874 263.573 340.321 263.925L340.265 263.927Z" fill="#421F35"/>
<path d="M325.905 256.898H325.896L325.665 256.863C325.307 256.751 325.122 256.411 325.251 256.105C329.876 245.294 333.517 234.082 336.079 222.778C336.147 222.464 336.511 222.254 336.891 222.308C337.267 222.371 337.515 222.682 337.441 223.001C334.869 234.363 331.208 245.637 326.558 256.509C326.459 256.742 326.196 256.898 325.905 256.898Z" fill="#421F35"/>
<path d="M312.829 259.497H312.824L312.636 259.472L312.225 259.178L312.18 258.73C313.371 255.487 314.78 252.265 316.368 249.154C316.524 248.854 316.942 248.716 317.282 248.847C317.634 248.977 317.795 249.326 317.643 249.625C316.074 252.7 314.681 255.883 313.505 259.084C313.414 259.33 313.15 259.497 312.829 259.497Z" fill="#421F35"/>
<path d="M350.947 295.468L350.931 295.49L350.365 295.759L350.019 295.676L349.99 295.665C349.665 295.496 349.56 295.131 349.757 294.852C353.265 289.96 357.492 285.458 362.322 281.47L362.804 281.302H362.811L363.306 281.481C363.573 281.716 363.564 282.091 363.29 282.316C358.534 286.246 354.382 290.671 350.947 295.468Z" fill="#421F35"/>
<path d="M94.3384 44.8609C92.7553 45.4057 91.362 46.2956 90.3104 47.4339L89.7723 47.6675L89.37 47.5484L89.3359 47.5322L89.0761 47.1386L89.221 46.7026C90.4221 45.4025 92.0117 44.3865 93.8186 43.764L94.3475 43.7668L94.7207 44.0911L94.7183 44.5433L94.3384 44.8609Z" fill="#421F35"/>
<path d="M85.5139 50.8226C86.6016 50.0433 87.7708 49.9306 88.4832 50.5368L88.6866 50.9555L88.4832 51.3731L87.9925 51.5451H87.9904L87.5017 51.372C87.3547 51.2508 86.83 51.4261 86.4094 51.7271C85.3125 52.5114 84.4033 53.4515 83.7045 54.5223L83.6887 54.5452L83.1142 54.8339L82.7862 54.7615L82.7592 54.7526C82.4246 54.5951 82.3025 54.2351 82.4876 53.9482C83.2682 52.7541 84.2858 51.7013 85.5139 50.8226Z" fill="#421F35"/>
<path d="M76.2123 63.0881L76.0632 63.0718L76.0496 63.069L75.6265 62.7938L75.5563 62.3465C76.104 60.5847 77.567 59.0334 79.4689 58.1982L79.9958 58.158L80.4076 58.4533C80.5795 58.743 80.4437 59.0998 80.1045 59.2489C78.5485 59.9332 77.3499 61.204 76.8998 62.6483C76.8185 62.9069 76.5449 63.0877 76.2144 63.0877H76.2123V63.0881Z" fill="#421F35"/>
<path d="M75.2553 67.8607L75.6988 67.7222L75.7573 67.7243L76.2323 67.9331L76.3929 68.3662L76.1463 68.7654C74.5724 69.8892 73.566 71.602 73.4577 73.3486C73.4373 73.6624 73.1322 73.9075 72.7589 73.9075L72.7253 73.9065C72.3454 73.8892 72.049 73.6111 72.0693 73.2858C72.2001 71.2187 73.39 69.1904 75.2553 67.8607Z" fill="#421F35"/>
<path d="M69.7488 58.2435C70.1084 58.153 70.504 58.3329 70.6107 58.6438C71.3003 60.6508 72.4969 62.5578 74.0729 64.1582L74.2336 64.5903L73.9894 64.9906L73.5373 65.1379L73.0487 64.9443L73.01 64.9182C71.3116 63.1969 70.0203 61.1426 69.2764 58.9755C69.1697 58.6618 69.3823 58.3339 69.7488 58.2435Z" fill="#421F35"/>
<path d="M69.4093 43.9643L69.9341 43.9191L70.3501 44.2088C72.6389 47.8823 75.3184 51.407 78.3172 54.6862L78.4596 55.1222L78.1952 55.5158L77.7634 55.6482L77.2614 55.4394L77.2228 55.4115C74.1763 52.0814 71.4515 48.498 69.1245 44.7627L69.0722 44.3123L69.4093 43.9643Z" fill="#421F35"/>
<path d="M85.1589 47.5812L84.7383 47.7045L84.2293 47.4851L84.1887 47.4562C80.5206 43.216 77.4653 38.5904 75.1109 33.709V33.2586L75.4887 32.9371H76.0226L76.3958 33.2603C78.705 38.0463 81.7018 42.5861 85.3063 46.7535L85.4354 47.1951L85.1589 47.5812Z" fill="#421F35"/>
<path d="M109.025 65.0453C109.031 65.3704 108.724 65.6399 108.33 65.6459C107.955 65.6459 107.643 65.3859 107.636 65.0658C107.591 62.9037 108.306 60.7002 109.649 58.8614C109.85 58.5855 110.273 58.4986 110.606 58.671C110.931 58.8441 111.031 59.209 110.827 59.4849C109.626 61.132 108.984 63.1065 109.025 65.0453Z" fill="#421F35"/>
<path d="M101.815 55.5387C101.914 55.2278 102.296 55.0402 102.665 55.1229L103.088 55.4002L103.154 55.8485C100.094 65.4301 100.788 75.7885 105.11 85.0142C105.25 85.3174 105.076 85.6618 104.701 85.789L104.486 85.8236L104.463 85.8247C104.176 85.8247 103.923 85.6795 103.816 85.4534C99.3861 75.9916 98.6757 65.3675 101.815 55.5387Z" fill="#421F35"/>
<path d="M85.6878 74.2739L86.2101 74.3587C92.1965 77.6916 97.1308 82.578 100.11 88.1165L100.128 88.5676L99.741 88.9075L99.4761 88.9538C99.2046 88.9538 98.9559 88.8192 98.843 88.6093C95.9754 83.2718 91.2192 78.5621 85.4503 75.3483L85.1493 74.9741L85.249 74.5315L85.6878 74.2739Z" fill="#421F35"/>
<path d="M49.7388 688.17C49.9717 687.909 50.4105 687.862 50.7136 688.053C51.0188 688.249 51.0823 688.621 50.8514 688.882C48.3546 691.7 45.9711 694.649 43.7661 697.648L43.7503 697.671L43.1915 697.933L42.839 697.847L42.8095 697.836C42.484 697.663 42.3864 697.297 42.5903 697.021C44.8019 694.009 47.2083 691.031 49.7388 688.17Z" fill="#421F35"/>
<path d="M42.6172 685.368C42.8435 685.106 43.2819 685.045 43.5874 685.238C43.8972 685.43 43.9652 685.801 43.739 686.063C39.2634 691.293 34.8896 696.685 30.742 702.09L30.1744 702.365L29.8103 702.274L29.7808 702.262L29.4803 701.886L29.5799 701.443C33.7383 696.022 38.1259 690.614 42.6172 685.368Z" fill="#421F35"/>
<path d="M16.8947 702.967C21.3972 696.413 26.3661 689.985 31.667 683.864L32.1216 683.632L32.6372 683.74C32.947 683.933 33.0126 684.304 32.7842 684.567C27.5173 690.65 22.5734 697.042 18.0933 703.564L18.0775 703.586L17.51 703.864L17.1729 703.786L17.1434 703.776C16.8129 703.611 16.7025 703.249 16.8947 702.967Z" fill="#421F35"/>
<path d="M486.604 499C516.321 531.944 534.001 573.25 534.001 618.093C534.001 725.805 432 813.124 306.176 813.124C237.417 813.124 175.773 787.048 134 745.818C153.113 749.154 172.903 750.906 193.174 750.906C355.236 750.906 486.613 638.945 486.613 500.835C486.613 500.223 486.61 499.611 486.604 499Z" fill="#00C6C0"/>
</svg>
